<?xml version="1.0" ?><svg data-name="Layer 1" id="Layer_1" viewBox="0 0 32 32" xmlns="http://www.w3.org/2000/svg"><title/><path d="M20,29H12a5.006,5.006,0,0,1-5-5V14a1,1,0,0,1,1-1H24a1,1,0,0,1,1,1V24A5.006,5.006,0,0,1,20,29ZM9,15v9a3,3,0,0,0,3,3h8a3,3,0,0,0,3-3V15Z"/><path d="M19,9H13a1,1,0,0,1-1-1V7a4,4,0,0,1,8,0V8A1,1,0,0,1,19,9ZM14,7h4a2,2,0,0,0-4,0Z"/><path d="M24,15H8a3,3,0,0,1-3-3V10A3,3,0,0,1,8,7H24a3,3,0,0,1,3,3v2A3,3,0,0,1,24,15ZM8,9a1,1,0,0,0-1,1v2a1,1,0,0,0,1,1H24a1,1,0,0,0,1-1V10a1,1,0,0,0-1-1Z"/><path d="M13,25a1,1,0,0,1-1-1V18a1,1,0,0,1,2,0v6A1,1,0,0,1,13,25Z"/><path d="M19,25a1,1,0,0,1-1-1V18a1,1,0,0,1,2,0v6A1,1,0,0,1,19,25Z"/></svg>